HIERARCHY
ROOT root
{
	OFFSET	0	13.1	24.9
	CHANNELS 6  Xposition Yposition Zposition Xrotation Yrotation Zrotation
	JOINT spine_1
	{
		OFFSET	0	9.99999	0
		CHANNELS 3  Xrotation Yrotation Zrotation
		JOINT spine_2
		{
			OFFSET	0	112	-10
			CHANNELS 3  Xrotation Yrotation Zrotation
			JOINT spine_3
			{
				OFFSET	0	206.5	19.3
				CHANNELS 3  Xrotation Yrotation Zrotation
				JOINT spine_4
				{
					OFFSET	0	110.4	14.6
					CHANNELS 3  Xrotation Yrotation Zrotation
					JOINT neck_1
					{
						OFFSET	0	71.8	-50.3
						CHANNELS 3  Xrotation Yrotation Zrotation
						JOINT neck_2
						{
							OFFSET	0	86.2	-25.8
							CHANNELS 3  Xrotation Yrotation Zrotation
							JOINT head_ee
							{
								OFFSET	0	179.8	-8.7
								CHANNELS 3  Xrotation Yrotation Zrotation
								End Site
								{
									OFFSET	1	0	0
								}
							}
						}
					}
					JOINT left_clavicle
					{
						OFFSET	-43.2	22.4	-70.8
						CHANNELS 3  Xrotation Yrotation Zrotation
						JOINT left_shoulder
						{
							OFFSET	-93.9	-5.79999	48.7
							CHANNELS 3  Xrotation Yrotation Zrotation
							JOINT left_elbow
							{
								OFFSET	-291.4	-30.8	15.2
								CHANNELS 3  Xrotation Yrotation Zrotation
								JOINT left_lowarm_twist
								{
									OFFSET	-110.7	-3.89999	13.6
									CHANNELS 3  Xrotation Yrotation Zrotation
									JOINT left_hand
									{
										OFFSET	-110.7	-3.89999	13.6
										CHANNELS 3  Xrotation Yrotation Zrotation
										JOINT left_ee
										{
											OFFSET	-80.8	-5.10001	12.1
											CHANNELS 3  Xrotation Yrotation Zrotation
											End Site
											{
												OFFSET	1	0	0
											}
										}
									}
								}
							}
						}
					}
					JOINT right_clavicle
					{
						OFFSET	43.2	22.4	-70.8
						CHANNELS 3  Xrotation Yrotation Zrotation
						JOINT right_shoulder
						{
							OFFSET	93.9	-5.79999	48.7
							CHANNELS 3  Xrotation Yrotation Zrotation
							JOINT right_elbow
							{
								OFFSET	291.4	-30.8	15.2
								CHANNELS 3  Xrotation Yrotation Zrotation
								JOINT right_lowarm_twist
								{
									OFFSET	110.7	-3.89999	13.6
									CHANNELS 3  Xrotation Yrotation Zrotation
									JOINT right_hand
									{
										OFFSET	110.7	-3.89999	13.6
										CHANNELS 3  Xrotation Yrotation Zrotation
										JOINT right_ee
										{
											OFFSET	80.8	-5.10001	12.1
											CHANNELS 3  Xrotation Yrotation Zrotation
											End Site
											{
												OFFSET	1	0	0
											}
										}
									}
								}
							}
						}
					}
				}
			}
		}
	}
	JOINT left_hip
	{
		OFFSET	-82.8	-127.5	0.300001
		CHANNELS 3  Xrotation Yrotation Zrotation
		JOINT left_knee
		{
			OFFSET	-28.2	-396.7	2.2
			CHANNELS 3  Xrotation Yrotation Zrotation
			JOINT left_ankle
			{
				OFFSET	-11.7	-411.3	35.4
				CHANNELS 3  Xrotation Yrotation Zrotation
				JOINT left_toes
				{
					OFFSET	0	-60	-88.6
					CHANNELS 3  Xrotation Yrotation Zrotation
					JOINT left_foot_ee
					{
						OFFSET	-22.5	-16.5	-42.2
						CHANNELS 3  Xrotation Yrotation Zrotation
						End Site
						{
							OFFSET	1	0	0
						}
					}
				}
			}
		}
	}
	JOINT right_hip
	{
		OFFSET	82.8	-127.5	0.300001
		CHANNELS 3  Xrotation Yrotation Zrotation
		JOINT right_knee
		{
			OFFSET	28.2	-396.7	2.2
			CHANNELS 3  Xrotation Yrotation Zrotation
			JOINT right_ankle
			{
				OFFSET	11.7	-411.3	35.4
				CHANNELS 3  Xrotation Yrotation Zrotation
				JOINT right_toes
				{
					OFFSET	0	-60	-88.6
					CHANNELS 3  Xrotation Yrotation Zrotation
					JOINT right_foot_ee
					{
						OFFSET	22.5	-16.5	-42.2
						CHANNELS 3  Xrotation Yrotation Zrotation
						End Site
						{
							OFFSET	1	0	0
						}
					}
				}
			}
		}
	}
}
MOTION
Frames: 12
Frame Time: 0.02
1135.58783956 731.534 -1689.47021512 -8.56611034731 34.343615599 -1.41585340538 5.04821 0.743866 3.95566 5.05678 0.490856 3.99489 5.08342 -0.00271612 4.02489 5.06138 0.632464 3.97496 -6.23158 9.94321 -14.7412 -5.3316 29.1346 -13.2641 -0.0 0.0 -0.0 -4.44121 14.4794 -5.51554 -30.4729 -18.1818 70.9928 0.564045 -15.6111 0.077321 32.098 -0.00324092 -4.04715 0.271858 14.3343 7.58354 -0.0 0.0 -0.0 9.90763 12.9076 -19.5662 -4.5294 39.8153 -71.1971 0.74548 20.2686 -0.133253 46.507 0.730244 5.73519 -0.701054 -6.41742 1.89755 0.0 0.0 0.0 10.5841 -3.0017 11.6763 -36.7486 -0.272979 5.53772 12.6118 17.2425 -1.80068 -17.8534 0.0 0.0 -0.0 0.0 -0.0 16.1529 1.22039 1.41372 -4.34396 -0.154321 -0.648647 19.8361 28.9194 3.34949 -5.97532 0.0 0.0 0.0 0.0 0.0 
1120.60488259 733.558 -1710.04368477 -6.93551447839 30.4753717117 -3.273649772 4.92643 1.01854 4.05016 4.93524 0.758981 4.10663 4.98207 0.242998 4.16899 4.95895 0.897812 4.07857 -5.97944 10.5117 -14.1574 -5.0974 29.777 -12.6295 -0.0 0.0 -0.0 -4.93856 15.1359 -6.17572 -33.1631 -17.7151 71.7557 0.612952 -16.8904 0.091008 32.2183 -0.00751758 -4.06192 0.320209 14.099 7.79757 -0.0 0.0 -0.0 10.6217 13.8863 -21.1207 -4.10598 40.918 -71.3233 0.766327 20.7875 -0.140563 44.5813 0.608752 5.5208 -0.5371 -6.07426 0.974602 0.0 0.0 0.0 16.3787 -8.28064 9.02419 -37.3947 -0.309393 5.63008 14.0439 18.6483 -2.00371 -18.6796 0.0 0.0 -0.0 0.0 -0.0 11.8144 6.57746 1.99456 -3.70092 -0.134588 -0.551932 23.2356 29.1071 3.85345 -3.87294 0.0 0.0 0.0 0.0 0.0 
1105.24594532 730.949 -1724.48191127 -6.62465688773 30.0341187038 -4.24895700461 5.01584 0.99571 3.87826 5.0239 0.747105 3.93364 5.06805 0.258669 3.9955 5.04687 0.885954 3.90475 -6.89447 11.3133 -12.4222 -6.28965 29.9141 -10.3567 -0.0 0.0 -0.0 -6.22558 17.2434 -7.69772 -34.1552 -18.2529 72.1921 0.747292 -20.3138 0.133881 31.9075 0.00346771 -4.02376 0.446009 14.2388 8.6441 -0.0 0.0 -0.0 10.8998 14.3471 -21.728 -3.90669 40.6883 -69.4315 0.779137 21.1046 -0.145142 44.5018 0.603886 5.51185 -0.439832 -5.20981 0.707176 0.0 0.0 0.0 23.9183 -6.06966 10.0273 -39.5856 -0.440611 5.94019 12.4536 18.2025 -1.78433 -18.7145 0.0 0.0 -0.0 0.0 -0.0 10.0515 4.08186 3.87026 -4.92546 -0.171229 -0.736286 25.5625 26.7671 4.06159 -3.01128 0.0 0.0 0.0 0.0 0.0 
1058.69640697 732.777 -1748.64815846 -7.35148450348 35.5913497082 -2.7266791308 5.34086 0.855385 3.91859 5.3492 0.604503 3.96498 5.3829 0.135011 4.00845 5.3613 0.765882 3.93704 -8.70222 11.9108 -12.8235 -8.29438 31.1453 -10.0527 -0.0 0.0 -0.0 -7.12218 18.9356 -8.60578 -34.8543 -17.9778 71.2943 0.763596 -20.7197 0.139595 32.5317 -0.0188109 -4.10036 0.536759 13.6511 8.99673 -0.0 0.0 -0.0 10.9406 13.6561 -21.8416 -3.40944 40.4954 -66.6053 0.864831 23.1906 -0.177454 43.3617 0.535568 5.38297 -0.237541 -1.90804 0.775423 0.0 0.0 0.0 23.456 -6.9682 5.13324 -39.4171 -0.430103 5.91653 12.6883 18.1722 -1.8163 -18.4577 0.0 0.0 -0.0 0.0 -0.0 7.88332 1.03163 4.25905 -5.12932 -0.176946 -0.767051 25.794 22.4358 3.91031 -3.1179 0.0 0.0 0.0 0.0 0.0 
1034.74131175 732.831 -1779.48681274 -5.13526190251 37.6037181198 -3.60516101867 4.80289 0.645166 3.8902 4.81122 0.39651 3.9233 4.83161 -0.10514 3.94185 4.81031 0.518237 3.9091 -11.3059 12.973 -8.55029 -11.5212 30.0857 -4.65536 -0.0 0.0 -0.0 -7.88627 19.8428 -9.49772 -34.2905 -18.3544 69.9396 0.939934 -24.967 0.208099 34.1574 -0.0807436 -4.2987 0.550024 13.6917 9.09617 -0.0 0.0 -0.0 11.0576 12.4171 -22.1351 -3.74843 39.8763 -64.9381 0.951315 25.2319 -0.212927 41.4423 0.426399 5.16303 0.33122 7.14264 0.794879 0.0 0.0 0.0 24.0316 1.19659 1.25483 -36.2572 -0.245982 5.46721 16.5152 16.3762 -2.31794 -18.8584 0.0 0.0 -0.0 0.0 -0.0 3.44509 -1.31426 3.72115 -4.90184 -0.17056 -0.732724 27.5326 19.4034 4.0169 -3.55507 0.0 0.0 0.0 0.0 0.0 
1021.45484504 726.936 -1793.34909301 -3.24980457056 38.170909527 -4.89473402887 4.62682 0.581703 3.78038 4.63471 0.340148 3.80968 4.65133 -0.158762 3.82152 4.63124 0.446323 3.79872 -12.6238 13.3774 -6.8818 -13.0657 29.732 -2.50843 -0.0 0.0 -0.0 -8.12098 20.1395 -9.75872 -34.0559 -18.2479 69.2111 0.97073 -25.6811 0.221272 34.7111 -0.103123 -4.36585 0.507681 13.818 8.87524 -0.0 0.0 -0.0 11.0734 11.4881 -22.1867 -4.05914 39.8655 -64.5177 1.00528 26.4721 -0.23646 40.5302 0.377128 5.05729 0.595256 11.4416 0.848176 0.0 0.0 0.0 26.4887 3.5423 -1.05519 -33.8062 -0.12044 5.11224 17.3492 15.7574 -2.42284 -19.6877 0.0 0.0 -0.0 0.0 -0.0 -0.484718 -1.94934 4.29643 -4.27956 -0.152394 -0.638951 28.5445 19.1291 4.12788 -3.48492 0.0 0.0 0.0 0.0 0.0 
1014.92216359 725.51 -1806.40884954 -3.44698467335 38.3419421898 -4.57162647812 4.69446 0.338027 3.65509 4.70188 0.104919 3.66916 4.70286 -0.370859 3.65191 4.68432 0.210146 3.66465 -13.7547 13.075 -6.57412 -14.2972 28.9251 -1.99102 -0.0 0.0 -0.0 -8.10233 20.0817 -9.75011 -33.6322 -18.5347 69.1607 0.975991 -25.8022 0.223557 34.8405 -0.108445 -4.38151 0.466301 14.1165 8.72606 -0.0 0.0 -0.0 11.0132 9.89159 -22.0668 -4.36203 39.4634 -64.1487 1.04399 27.3456 -0.253979 39.8198 0.33992 4.97438 0.815851 14.9283 0.868817 0.0 0.0 0.0 26.4333 5.5382 -1.24563 -32.0813 -0.041264 4.85942 18.0155 13.5399 -2.49652 -20.0869 0.0 0.0 -0.0 0.0 -0.0 -2.05385 -0.605806 4.30121 -3.27465 -0.120909 -0.487942 29.4245 18.3608 4.20433 -3.83015 0.0 0.0 0.0 0.0 0.0 
1000.78853053 723.995 -1816.79086847 -3.25211845114 37.6810833082 -5.25317765268 4.68635 0.297591 3.65389 4.69377 0.0646413 3.6654 4.69219 -0.411069 3.64288 4.67372 0.169016 3.66208 -14.2896 11.829 -4.53674 -14.7735 25.3081 -0.367363 -0.0 0.0 -0.0 -8.87884 20.9638 -10.6285 -31.9591 -21.0097 70.8667 0.977806 -25.844 0.224348 34.1533 -0.0805806 -4.2982 0.0136966 15.1248 6.27493 -0.0 0.0 -0.0 10.9627 7.68765 -21.9472 -4.40166 39.5827 -64.2633 1.09515 28.4793 -0.27793 39.3289 0.314819 4.91685 1.00272 17.482 0.733836 0.0 0.0 0.0 25.2737 8.07359 -0.187369 -19.1632 0.304657 2.91128 17.1445 13.7627 -2.38547 -20.9007 0.0 0.0 -0.0 0.0 -0.0 -2.89062 -1.11132 5.25462 -3.37793 -0.124267 -0.503438 29.4054 17.8122 4.18414 -5.93195 0.0 0.0 0.0 0.0 0.0 
994.495969322 718.611 -1829.88603336 -3.67451226261 35.9428600503 -4.82948042319 5.00016 0.257746 3.48379 5.00691 0.0356788 3.49312 5.00333 -0.398593 3.47051 4.98656 0.154167 3.4899 -13.577 12.0685 -5.09422 -14.022 26.1159 -0.987164 -0.0 0.0 -0.0 -8.97659 21.0233 -10.7565 -28.6431 -19.739 72.889 0.853803 -22.9257 0.173135 34.8957 -0.110725 -4.38818 -0.0036728 15.205 6.19826 -0.0 0.0 -0.0 10.8865 6.34313 -21.76 -6.11943 38.9707 -62.9054 1.21308 31.0014 -0.336444 39.0256 0.299552 4.88119 1.04583 18.4171 0.8584 0.0 0.0 0.0 26.5513 8.81236 -1.69614 -17.3469 0.317786 2.63293 15.7879 10.9815 -2.19962 -20.646 0.0 0.0 -0.0 0.0 -0.0 -3.88118 -0.479003 5.5597 -2.42829 -0.0923381 -0.361195 29.6174 16.3828 4.16377 -5.08187 0.0 0.0 0.0 0.0 0.0 
983.141751665 715.882 -1845.38722812 -5.0372974938 35.4012280358 -4.17986924239 5.04982 0.178976 3.49841 5.05662 -0.0438605 3.50271 5.04807 -0.476141 3.47051 5.03127 0.077588 3.50212 -13.9013 10.1092 -6.01618 -14.2083 22.9403 -2.46801 -0.0 0.0 -0.0 -9.20492 21.481 -10.9302 -26.4826 -20.8682 73.9179 0.739454 -20.118 0.131172 34.3679 -0.0891752 -4.32425 -0.214784 15.7558 5.10708 -0.0 0.0 -0.0 10.4273 4.93526 -20.7353 -5.91117 38.0245 -64.1002 1.33557 33.4871 -0.401814 38.9131 0.293941 4.86794 1.18588 20.02 0.63974 0.0 0.0 0.0 26.0653 8.5037 -1.16449 -9.68518 0.276003 1.45898 14.1957 8.93117 -1.98731 -20.2549 0.0 0.0 -0.0 0.0 -0.0 -3.41133 0.771765 6.20352 -3.55332 -0.129905 -0.529764 31.376 16.265 4.35565 -5.48792 0.0 0.0 0.0 0.0 0.0 
976.848782852 715.882 -1838.66105487 -5.10014269326 36.3803387817 -4.07267308708 5.04982 0.178976 3.49841 5.05662 -0.0438605 3.50271 5.04807 -0.476141 3.47051 5.03127 0.077588 3.50212 -13.9013 10.1092 -6.01618 -14.2083 22.9403 -2.46801 -0.0 0.0 -0.0 -9.20492 21.481 -10.9302 -26.4826 -20.8682 73.9179 0.739454 -20.118 0.131172 34.3679 -0.0891752 -4.32425 -0.214784 15.7558 5.10708 -0.0 0.0 -0.0 10.4273 4.93526 -20.7353 -5.91117 38.0245 -64.1002 1.33557 33.4871 -0.401814 38.9131 0.293941 4.86794 1.18588 20.02 0.63974 0.0 0.0 0.0 26.0653 8.5037 -1.16449 -9.68518 0.276003 1.45898 14.1957 8.93117 -1.98731 -20.2549 0.0 0.0 -0.0 0.0 -0.0 -3.41133 0.771765 6.20352 -3.55332 -0.129905 -0.529764 31.376 16.265 4.35565 -5.48792 0.0 0.0 0.0 0.0 0.0 
973.271175004 715.314 -1851.34913332 -6.37470917585 34.895735201 -2.91177167091 5.18697 0.492917 3.66596 5.19441 0.258806 3.68986 5.20428 -0.188268 3.69412 5.18546 0.397109 3.67756 -14.6002 7.88787 -4.94616 -14.8056 18.0302 -2.0806 -0.0 0.0 -0.0 -8.72516 20.9578 -10.3943 -22.8409 -21.4679 73.7984 0.509039 -14.153 0.0631926 33.8191 -0.0673923 -4.25757 -0.786935 17.9894 2.52724 -0.0 0.0 -0.0 10.0834 3.57903 -19.9665 -7.73281 37.7615 -64.3317 1.49696 36.5565 -0.494468 40.5592 0.378667 5.06066 1.05689 14.8617 -0.777548 0.0 0.0 0.0 27.2165 8.31436 -1.85553 4.45357 -0.208849 -0.651217 9.99503 11.5671 -1.42366 -25.1986 0.0 0.0 -0.0 0.0 -0.0 -2.49351 1.68266 5.86488 -4.562 -0.160765 -0.681488 31.7953 15.857 4.38865 -7.15693 0.0 0.0 0.0 0.0 0.0 
